<svg xmlns="http://www.w3.org/2000/svg" width="3200" height="1600" viewBox="0 0 800 400">
  <path d="m721 186 21.313-.125 6.657-.055 5.33-.015 2.71-.031c10.101-.003 22.914.942 30.877 7.867 5.955 6.633 6.659 12.94 6.426 21.683-.544 6.395-2.577 9.813-6.875 14.426-9.966 7.43-22.728 7.419-34.602 7.348l-2.471-.003c-2.997-.006-5.994-.02-8.99-.032L721 237z" fill="none" stroke="#ffffff" stroke-width="4"/>
  <path d="m474.375 184.813 2.46-.038c9.123-.022 19.256 1.773 26.22 8.088 6.432 7.087 7.518 12.98 7.25 22.469-.567 6.82-3.015 10.668-7.805 15.418-10.834 8.656-24.43 8.39-37.592 7.035-7.794-1.024-14.47-2.9-19.908-8.785-6.038-8.01-6.762-15.056-6-25 1.672-6.687 6.443-11.191 12-15 7.42-3.794 15.187-4.181 23.375-4.187m-126.937 6.812c5.288 4.428 8.022 9.767 9.039 16.559.342 7.65-1.033 13.538-5.477 19.816-6.93 7.246-15.78 9.88-25.574 10.203-23.398.356-23.398.356-32.426-7.203-4.91-4.851-7.626-9.087-8.3-16.148-.029-7.756-.037-13.878 5.081-19.973 14.382-14.2 41.23-13.903 57.656-3.254" fill="none" stroke="#ffffff" stroke-width="4"/>
  <path d="M519 186c24.75-1.768 24.75-1.768 30.082 2.73 2.645 2.875 4.753 6.061 6.76 9.406 1.761 2.835 3.87 5.26 6.033 7.802l1.992 2.464c2.661 3.241 5.404 6.414 8.133 9.598l1-32h22v51c-23.782 1.195-23.782 1.195-29.414-1.84-2.25-2.59-3.896-5.177-5.586-8.16a214 214 0 0 0-4.437-5.375L551 216l-10-12-1 33h-21zM9 186l23.688-.25 7.393-.11c25.216-.22 25.216-.22 34.607 6.798 3.884 4.304 4.745 7.74 4.558 13.578-.588 4.743-2.714 7.464-6.058 10.734-8.997 6.35-20.14 5.388-30.688 5.313l-3.648-.014q-4.426-.02-8.852-.049v15H9z" fill="none" stroke="#ffffff" stroke-width="4"/>
  <path d="M150 186h22l.078 6.824q.06 3.286.13 6.573.042 2.277.063 4.554c.022 2.188.068 4.374.12 6.56l.063 3.984c.624 4.008 1.662 5.7 4.546 8.505 2.666.712 2.666.712 5.5.5l2.844-.031c3.038-.536 4.447-1.34 6.656-3.469 1.164-3.492 1.211-6.391 1.316-10.074l.063-2.072q.097-3.27.184-6.542l.13-4.439c.108-3.624.207-7.249.307-10.873h22c.093 4.375.172 8.747.22 13.123q.03 2.225.082 4.45c.43 18.742.43 18.742-5.852 26.29-7.548 7.549-17.29 8.541-27.45 8.637-9.479-.081-17.57-1.075-25.437-6.75-6.063-6.506-7.696-13.205-7.66-21.922 0-.682.002-1.365.004-2.068.005-2.17.018-4.34.03-6.51q.008-2.212.014-4.426c.01-3.608.03-7.216.049-10.824" fill="none" stroke="#ffffff" stroke-width="4"/>
  <path d="M606 186h58v12h-37v9h32v9h-32v9h40v12h-61z" fill="none" stroke="#ffffff" stroke-width="4"/>
  <path d="M374 186h59c0 13 0 13-3.48 16.98a106 106 0 0 1-4.707 3.208l-4.942 3.488-2.489 1.686c-3.444 2.368-6.718 4.935-10.007 7.513L402 223l31 1v13h-59c0-13 0-13 3.48-16.98a106 106 0 0 1 4.707-3.208l4.942-3.488 2.489-1.686c3.444-2.368 6.718-4.935 10.007-7.513L405 200l-31-1z" fill="none" stroke="#ffffff" stroke-width="4"/>
  <path d="M221 186h62v13h-20v38h-22v-38h-20zm-134 0h22v38h38v13H87z" fill="none" stroke="#ffffff" stroke-width="4"/>
  <path d="M688 186h21v51h-21z" fill="none" stroke="#ffffff" stroke-width="4"/>
  <path d="m742 199 10.125-.25 3.157-.11c7.187-.086 10.272 1.259 15.593 6.048 1.815 3.73 1.877 7.258 1.125 11.312-1.649 3.21-3.868 5.358-7.031 7.152-4.423 1.263-8.71 1.056-13.282.973L742 224z" fill="none" stroke="#ffffff" stroke-width="4"/>
  <path d="m473.938 198.625 3.09-.023c4.433.594 7.044 2.545 10.284 5.523 2.36 4.02 2.736 7.327 1.688 11.875-2.325 3.921-4.644 6.548-9 8-11.406 1.152-11.406 1.152-15.625-2.187-3.078-3.646-4.15-6.056-4.75-10.75.567-4.63 2.777-7.57 6.145-10.715 2.87-1.734 4.832-1.748 8.168-1.723" fill="none" stroke="#ffffff" stroke-width="4"/>
  <path d="m320 198.625 3.063-.023c4.25.576 6.769 2.184 9.718 5.25 2.33 4.105 1.936 8.593 1.219 13.148-1.856 3.67-4.043 5.68-8 7a100 100 0 0 1-5.875.25l-3.117.078c-4.375-.477-6.99-2.135-9.82-5.453-2.057-4.98-2.057-9.77 0-14.75 3.678-4.312 7.224-5.543 12.812-5.5" fill="none" stroke="#ffffff" stroke-width="4"/>
  <path d="M30 199q5.907-.08 11.813-.125l3.392-.05 3.252-.02 3-.032C54 199 54 199 57 201c.188 3.125.188 3.125 0 6-5.585 3.582-10.483 3.356-16.875 3.188l-2.953-.042A745 745 0 0 1 30 210z" fill="none" stroke="#ffffff" stroke-width="4"/>
  <path d="M671 227h10v10h-10z" fill="none" stroke="#ffffff" stroke-width="4"/>
  <path d="M360 227h10v10h-10z" fill="none" stroke="#ffffff" stroke-width="4"/>
</svg>